<?xml version="1.0" standalone="no"?>
<svg viewBox="0 0 200 200" xmlns="http://www.w3.org/2000/svg">
  <path fill="#8A3FFC" d="M46.2,-80.3C59.9,-72,71.3,-59.9,78.6,-45.8C86,-31.8,89.4,-15.9,88.5,-0.5C87.6,14.9,82.4,29.8,74.6,42.9C66.7,56,56.1,67.4,43.2,75.8C30.3,84.2,15.2,89.5,0,89.4C-15.1,89.4,-30.2,83.9,-44.2,76.2C-58.2,68.4,-71.1,58.5,-78.2,45.4C-85.4,32.3,-86.7,16.2,-85.9,0.5C-85.1,-15.2,-82.2,-30.5,-75.5,-44.5C-68.9,-58.4,-58.7,-71.1,-45.5,-79.7C-32.3,-88.4,-16.1,-92.9,0,-92.9C16.2,-93,32.4,-88.6,46.2,-80.3Z" transform="translate(100 100)" />
</svg>
