<?xml version="1.0" standalone="no"?>
<!DOCTYPE svg PUBLIC "-//W3C//DTD SVG 20010904//EN"
 "http://www.w3.org/TR/2001/REC-SVG-20010904/DTD/svg10.dtd">
<svg version="1.0" xmlns="http://www.w3.org/2000/svg"
 width="64.000000pt" height="64.000000pt" viewBox="0 0 64.000000 64.000000"
 preserveAspectRatio="xMidYMid meet">

<g transform="translate(0.000000,64.000000) scale(0.100000,-0.100000)"
fill="#000000" stroke="none">
<path d="M22 617 c-21 -23 -22 -30 -22 -298 0 -275 0 -276 23 -297 23 -21 30
-22 298 -22 275 0 276 0 297 23 21 23 22 30 22 298 0 275 0 276 -23 297 -23
21 -30 22 -298 22 -275 0 -276 0 -297 -23z m298 -78 c0 -6 9 -8 23 -4 16 5 18
4 8 -3 -12 -9 -12 -11 0 -14 8 -3 1 -3 -16 0 -38 6 -47 11 -40 23 8 12 25 11
25 -2z m48 -54 c13 -4 33 -16 43 -26 24 -24 15 -24 -19 0 -15 10 -31 20 -37
21 -24 6 -35 13 -35 22 0 7 4 7 13 0 6 -5 23 -13 35 -17z m-36 -59 c-16 -18
-16 -18 6 -7 13 7 28 11 35 8 6 -2 -10 -11 -36 -20 l-48 -16 21 29 c11 15 20
34 20 42 0 10 2 10 10 -2 6 -10 4 -21 -8 -34z m-22 -67 c0 -5 -4 -9 -10 -9 -5
0 -10 7 -10 16 0 8 5 12 10 9 6 -3 10 -10 10 -16z m-36 -32 c7 -6 6 -7 -4 -4
-8 2 -16 12 -17 23 -2 13 -1 15 4 4 3 -8 11 -19 17 -23z m66 13 c0 -5 -4 -10
-10 -10 -5 0 -10 5 -10 10 0 6 5 10 10 10 6 0 10 -4 10 -10z m-232 -87 c-22
-6 -23 -19 -3 -27 24 -9 18 -36 -7 -35 -17 1 -19 2 -5 6 21 6 22 12 0 28 -19
14 -9 36 15 34 15 -1 15 -2 0 -6z m82 -15 c10 -22 10 -22 -4 -4 -9 11 -22 16
-31 12 -24 -9 -14 -41 12 -40 13 0 19 -4 16 -13 -3 -7 1 -13 8 -13 7 0 10 -2
7 -5 -9 -9 -58 20 -64 38 -6 20 12 47 32 47 7 0 18 -10 24 -22z m43 -40 c8 -5
6 -8 -5 -8 -14 0 -18 8 -17 38 2 34 2 34 6 7 3 -16 10 -33 16 -37z m75 55
c-22 -6 -23 -19 -3 -27 24 -9 18 -36 -7 -35 -17 1 -19 2 -5 6 21 6 22 12 0 28
-19 14 -9 36 15 34 15 -1 15 -2 0 -6z m62 -28 c0 -8 -8 -15 -17 -16 -15 0 -15
-2 2 -9 16 -7 17 -9 3 -9 -21 -1 -32 15 -24 34 7 20 36 19 36 0z m27 -10 c-7
-13 -14 -20 -15 -14 -5 14 6 39 17 39 5 0 4 -11 -2 -25z m111 7 c2 -7 -5 -12
-15 -13 -16 0 -16 -1 2 -9 19 -8 19 -9 -2 -9 -16 -1 -23 5 -23 17 0 32 28 42
38 14z m19 -19 c-3 -10 -5 -4 -5 12 0 17 2 24 5 18 2 -7 2 -21 0 -30z m-77 -3
c0 -5 -4 -10 -10 -10 -5 0 -10 5 -10 10 0 6 5 10 10 10 6 0 10 -4 10 -10z"/>
</g>
</svg>
